# xmcd CD database file generated by OrangeCD 6.0
#
# Track frame offsets:
#	150
#	20906
#	40836
#	51688
#	74949
#	99567
#	135773
#	152345
#	167291
#	201798
#
# Disc length: 2986 seconds
#
# Revision: 0
# Processed by: cddbd v1.5.2PL0 Copyright (c) Steve Scherf et al.
# Submitted via: OrangeCD 6.0
#
DISCID=870ba80a
DTITLE=Sparky and Rhonda Rucker - Midnight Memories
DYEAR=1900
DGENRE=Blues
TTITLE0=Midnight Thirst
TTITLE1=Little Woman So Sweet
TTITLE2=Big Road Blues
TTITLE3=Campfire Memories
TTITLE4=Prodigal Son
TTITLE5=Betty and Dupree
TTITLE6=Stay on the Battlefield
TTITLE7=Walkin' My Blues Away
TTITLE8=Snowin' on the Redwoods
TTITLE9=Make A Change
EXTD=
EXTT0=
EXTT1=
EXTT2=
EXTT3=
EXTT4=
EXTT5=
EXTT6=
EXTT7=
EXTT8=
EXTT9=
PLAYORDER=
